<?xml version="1.0"?>
<svg xmlns="http://www.w3.org/2000/svg" height="512px" viewBox="0 0 512 512.0002" width="512px"><path d="m180.992188 331.007812h-60.234376l-10.910156 60h71.144532zm0 0" fill="#FFFFFF"/><path d="m210.988281 331.007812v60h89.996094v-60h-29.996094v15c0 8.292969-6.710937 15-15 15-8.292969 0-15-6.707031-15-15v-15zm0 0" fill="#FFFFFF"/><path d="m362.710938 202.148438c-.660157-3.234376-.191407-6.664063 1.289062-9.636719l85.394531-170.777344c2.945313-5.890625 1.699219-12.992187-3.046875-17.546875-4.746094-4.570312-11.910156-5.507812-17.648437-2.273438l-257.597657 143.09375c-11.832031 6.578126-19.992187 17.988282-22.394531 31.289063l-22.496093 124.714844h256.070312zm0 0" fill="#FFFFFF"/><path d="m330.984375 391.007812h69.292969l-11.996094-60h-57.296875zm0 0" fill="#FFFFFF"/><path d="m496.976562 482h-78.703124l-11.996094-60.996094h-301.882813l-10.910156 60.996094h-77.484375c-8.292969 0-16 6.710938-16 15 0 8.292969 7.707031 15 16 15h480.976562c8.289063 0 14.996094-6.707031 14.996094-15 0-8.289062-6.707031-15-14.996094-15zm0 0" fill="#FFFFFF"/></svg>
