<svg width="26" height="25" viewBox="0 0 26 25" fill="none" xmlns="http://www.w3.org/2000/svg">
<path d="M4.2442 7.98273H0.84886C0.382078 7.98273 0 8.36379 0 8.83357V24.1493C0 24.6189 0.380403 25 0.84886 25H4.2442C4.71266 25 5.09306 24.6188 5.09306 24.1493V8.83357C5.09306 8.36379 4.71093 7.98273 4.2442 7.98273Z" fill="#7EC68E"/>
<path d="M23.8809 7.98271C23.7442 7.9595 17.3434 7.98271 17.3434 7.98271L18.2375 5.53775C18.8544 3.8491 18.455 1.27071 16.7433 0.354056C16.186 0.0555617 15.4073 -0.0943472 14.7795 0.0640625C14.4194 0.154873 14.103 0.393811 13.9144 0.713939C13.6975 1.08212 13.7199 1.51189 13.6427 1.92013C13.4468 2.9556 12.9587 3.94011 12.2028 4.67907C10.885 5.96747 6.79102 9.6844 6.79102 9.6844V23.2984H20.9383C22.8473 23.2995 24.0983 21.1626 23.1568 19.4934C24.2791 18.7729 24.663 17.2552 24.0057 16.09C25.128 15.3694 25.5118 13.8518 24.8545 12.6865C26.791 11.4433 26.1436 8.36632 23.8809 7.98271Z" fill="#7EC68E"/>
</svg>
