<svg width="29" height="20" viewBox="0 0 29 20" fill="none" xmlns="http://www.w3.org/2000/svg">
<path d="M27.8286 8.83524H1.17144C0.524492 8.83524 0 9.35669 0 10C0 10.6433 0.524492 11.1648 1.17144 11.1648H27.8286C28.4756 11.1648 29 10.6433 29 10C29 9.35675 28.4756 8.83524 27.8286 8.83524Z" fill="white"/>
<path d="M27.8286 0H1.17144C0.524492 0 0 0.521511 0 1.16478C0 1.80805 0.524492 2.32957 1.17144 2.32957H27.8286C28.4756 2.32957 29 1.80805 29 1.16478C29 0.521511 28.4756 0 27.8286 0Z" fill="white"/>
<path d="M27.8286 17.6704H1.17144C0.524492 17.6704 0 18.1919 0 18.8352C0 19.4785 0.524492 20 1.17144 20H27.8286C28.4756 20 29 19.4785 29 18.8352C29 18.1919 28.4756 17.6704 27.8286 17.6704Z" fill="white"/>
</svg>
