<svg width="30" height="30" viewBox="0 0 30 30" fill="none" xmlns="http://www.w3.org/2000/svg">
<path d="M29.5576 21.4395C26.0291 17.91 25.4981 16.139 25.4981 10.5C25.4981 4.70098 20.7981 0 15.0001 0C9.20207 0 4.5021 4.70104 4.5021 10.5C4.5021 13.5405 4.42112 14.6755 4.00259 16.069C3.4821 17.805 2.41359 19.467 0.442087 21.4395C-0.502384 22.3845 0.166638 24 1.50263 24H9.82609L9.75057 24.75C9.75057 27.6495 12.1006 30 14.9996 30C17.8985 30 20.2486 27.6495 20.2486 24.75L20.173 24H28.497C29.8335 24 30.5026 22.3845 29.5576 21.4395ZM15.0006 28.5C12.93 28.5 11.2511 26.8205 11.2511 24.75L11.3266 24H18.6736L18.7501 24.75C18.7501 26.8205 17.0711 28.5 15.0006 28.5ZM1.5031 22.5C6.0021 18 6.0021 15 6.0021 10.5C6.0021 5.53002 10.0306 1.5 15.0001 1.5C19.9696 1.5 23.9981 5.53002 23.9986 10.5C23.9986 15 23.9986 18 28.4975 22.5H1.5031Z" fill="white"/>
</svg>
