<svg width="30" height="30" viewBox="0 0 30 30" fill="none" xmlns="http://www.w3.org/2000/svg">
<path d="M29.7405 28.4701L22.4484 21.1796C24.4045 18.9313 25.5888 15.9978 25.5888 12.7916C25.5888 5.73393 19.847 0 12.7944 0C5.7352 0 0 5.74058 0 12.7916C0 19.8426 5.74185 25.5832 12.7944 25.5832C16.0013 25.5832 18.9355 24.3991 21.1843 22.4435L28.4764 29.7339C28.6494 29.9069 28.8822 30 29.1085 30C29.3347 30 29.5675 29.9135 29.7405 29.7339C30.0865 29.388 30.0865 28.816 29.7405 28.4701ZM1.78975 12.7916C1.78975 6.72506 6.72655 1.79601 12.7878 1.79601C18.8556 1.79601 23.7858 6.73171 23.7858 12.7916C23.7858 18.8514 18.8556 23.7938 12.7878 23.7938C6.72655 23.7938 1.78975 18.8581 1.78975 12.7916Z" fill="white"/>
</svg>
